<svg xmlns="http://www.w3.org/2000/svg" width="720" height="380" font-family="Helvetica, Arial, sans-serif" font-size="12">
<rect width="720" height="380" fill="#ffffff"/>
<text x="360.0" y="24" text-anchor="middle" font-size="16" font-weight="bold" fill="#222">Locust throughput, 50 users, GET:POST = 3:1 (higher is better)</text>
<line x1="70" y1="310.0" x2="700" y2="310.0" stroke="#e5e5e5"/>
<text x="62" y="314.0" text-anchor="end" fill="#555">0</text>
<line x1="70" y1="260.0" x2="700" y2="260.0" stroke="#e5e5e5"/>
<text x="62" y="264.0" text-anchor="end" fill="#555">10,000</text>
<line x1="70" y1="210.0" x2="700" y2="210.0" stroke="#e5e5e5"/>
<text x="62" y="214.0" text-anchor="end" fill="#555">20,000</text>
<line x1="70" y1="160.0" x2="700" y2="160.0" stroke="#e5e5e5"/>
<text x="62" y="164.0" text-anchor="end" fill="#555">30,000</text>
<line x1="70" y1="110.0" x2="700" y2="110.0" stroke="#e5e5e5"/>
<text x="62" y="114.0" text-anchor="end" fill="#555">40,000</text>
<line x1="70" y1="60.0" x2="700" y2="60.0" stroke="#e5e5e5"/>
<text x="62" y="64.0" text-anchor="end" fill="#555">50,000</text>
<text x="18" y="185.0" transform="rotate(-90 18 185.0)" text-anchor="middle" fill="#555">requests / second</text>
<rect x="117.2" y="288.8" width="107.2" height="21.2" fill="#4C78A8" rx="2"/>
<text x="170.9" y="283.8" text-anchor="middle" font-size="11" fill="#222">4,238</text>
<rect x="227.5" y="244.4" width="107.2" height="65.6" fill="#F58518" rx="2"/>
<text x="281.1" y="239.4" text-anchor="middle" font-size="11" fill="#222">13,118</text>
<text x="227.5" y="330" text-anchor="middle" fill="#222">1 worker</text>
<rect x="432.2" y="251.1" width="107.2" height="58.9" fill="#4C78A8" rx="2"/>
<text x="485.9" y="246.1" text-anchor="middle" font-size="11" fill="#222">11,788</text>
<rect x="542.5" y="104.3" width="107.2" height="205.7" fill="#F58518" rx="2"/>
<text x="596.1" y="99.3" text-anchor="middle" font-size="11" fill="#222">41,138</text>
<text x="542.5" y="330" text-anchor="middle" fill="#222">4 workers</text>
<rect x="70" y="356" width="12" height="12" fill="#4C78A8"/>
<text x="88" y="366" fill="#222">HttpUser</text>
<rect x="156" y="356" width="12" height="12" fill="#F58518"/>
<text x="174" y="366" fill="#222">FastHttpUser</text>
</svg>